Coordinates
version=1
nRows=27
nColumns=12
inDegrees=yes

Units are S.I. units (second, meters, Newtons, ...)
Angles are in degrees

endheader
time	SC_y	SC_z	SC_x	AC_y	AC_z	AC_x	GH_y	GH_z	GH_yy	EL_x	PS_y
       0.0              -23.95          17.85          58.41          46.26         -12.63         -6.066         -153.8          8.444          103.6          112.6          120.6
   0.01573              -23.95          17.86          58.41          46.26         -12.63         -6.068         -153.7          8.451          103.5          112.6          120.6
   0.03145              -23.95          17.86          58.41          46.26         -12.63         -6.069         -153.7          8.457          103.5          112.6          120.6
   0.04718              -23.95          17.86          58.41          46.26         -12.63         -6.071         -153.6          8.465          103.5          112.6          120.6
   0.06291              -23.95          17.86          58.41          46.27         -12.63         -6.072         -153.6          8.472          103.5          112.6          120.6
   0.07863              -23.95          17.86          58.41          46.27         -12.63         -6.074         -153.5          8.481          103.4          112.6          120.6
   0.09436              -23.95          17.87           58.4          46.27         -12.63         -6.076         -153.4           8.49          103.4          112.6          120.5
    0.1101              -23.95          17.87           58.4          46.28         -12.63         -6.078         -153.4          8.499          103.4          112.6          120.5
    0.1258              -23.95          17.87           58.4          46.28         -12.62          -6.08         -153.3          8.509          103.3          112.6          120.5
    0.1415              -23.95          17.87           58.4          46.29         -12.62         -6.082         -153.2           8.52          103.3          112.6          120.5
    0.1573              -23.95          17.88          58.39          46.29         -12.62         -6.085         -153.1          8.531          103.2          112.6          120.5
     0.173              -23.95          17.88          58.39           46.3         -12.62         -6.087         -153.0          8.544          103.2          112.6          120.5
    0.1887              -23.95          17.89          58.39           46.3         -12.62          -6.09         -152.9          8.557          103.1          112.6          120.5
    0.2044              -23.96          17.89          58.38          46.31         -12.62         -6.093         -152.8          8.572          103.1          112.6          120.5
    0.2202              -23.96          17.89          58.38          46.31         -12.61         -6.097         -152.7          8.588          103.0          112.6          120.5
    0.2359              -23.96           17.9          58.38          46.32         -12.61           -6.1         -152.6          8.605          103.0          112.6          120.4
    0.2516              -23.96           17.9          58.37          46.33         -12.61         -6.104         -152.5          8.623          102.9          112.6          120.4
    0.2673              -23.96          17.91          58.37          46.34         -12.61         -6.109         -152.3          8.644          102.8          112.6          120.4
    0.2831              -23.96          17.92          58.36          46.35          -12.6         -6.113         -152.2          8.666          102.7          112.6          120.4
    0.2988              -23.96          17.92          58.36          46.36          -12.6         -6.119         -152.0           8.69          102.6          112.6          120.4
    0.3145              -23.96          17.93          58.35          46.37          -12.6         -6.124         -151.8          8.716          102.5          112.6          120.3
    0.3303              -23.97          17.94          58.34          46.38         -12.59          -6.13         -151.6          8.746          102.4          112.6          120.3
     0.346              -23.97          17.95          58.34          46.39         -12.59         -6.137         -151.3          8.778          102.3          112.6          120.3
    0.3617              -23.97          17.96          58.33          46.41         -12.58         -6.145         -151.1          8.814          102.2          112.6          120.2
    0.3774              -23.97          17.97          58.32          46.42         -12.58         -6.153         -150.8          8.853          102.0          112.6          120.2
    0.3932              -23.98          17.98          58.31          46.44         -12.57         -6.163         -150.5          8.898          101.8          112.6          120.2
    0.4089              -23.98          17.99           58.3          46.46         -12.57         -6.173         -150.1          8.947          101.6          112.6          120.1
